# Blender v2.82 (sub 7) OBJ File: 'stellated_octahedron.blend'
# www.blender.org
mtllib stellated_octahedron.mtl
o Cube
v 0.000000 0.000000 -1.000000
v 1.000000 0.000000 0.000000
v 0.000000 -1.000000 0.000000
v -1.000000 0.000000 0.000000
v 0.000000 0.000000 1.000000
v 0.000000 1.000000 0.000000
v -1.000000 -1.000000 1.000000
v 1.000000 -1.000000 1.000000
v 1.000000 -1.000000 -1.000000
v -1.000000 1.000000 1.000000
v -1.000000 -1.000000 -1.000000
v 1.000000 1.000000 1.000000
v 1.000000 1.000000 -1.000000
v -1.000000 1.000000 -1.000000
vt 0.000000 0.000000
vt 0.000000 0.000000
vt 0.000000 0.000000
vt 0.000000 0.000000
vt 0.000000 0.000000
vt 0.000000 0.000000
vt 0.000000 0.000000
vt 0.000000 0.000000
vt 0.000000 0.000000
vt 0.000000 0.000000
vt 0.000000 0.000000
vt 0.000000 0.000000
vt 0.000000 0.000000
vt 0.000000 0.000000
vn -0.5774 0.5774 0.5774
vn -0.5774 -0.5774 -0.5774
vn 0.5774 -0.5774 0.5774
vn -0.5774 -0.5774 0.5774
vn 0.5774 -0.5774 -0.5774
vn 0.5774 0.5774 0.5774
vn 0.5774 0.5774 -0.5774
vn -0.5774 0.5774 -0.5774
usemtl 0
s off
f 5/1/1 4/2/1 7/3/1
f 4/2/2 3/4/2 7/3/2
f 5/1/3 7/3/3 3/4/3
f 5/1/4 3/4/4 8/5/4
f 3/4/5 2/6/5 8/5/5
f 5/1/6 8/5/6 2/6/6
f 2/6/3 3/4/3 9/7/3
f 1/8/7 2/6/7 9/7/7
f 1/8/2 9/7/2 3/4/2
f 3/4/4 4/2/4 11/9/4
f 1/8/8 11/9/8 4/2/8
f 3/4/5 11/9/5 1/8/5
f 5/1/6 6/10/6 10/11/6
f 4/2/8 10/11/8 6/10/8
f 4/2/4 5/1/4 10/11/4
f 6/10/1 5/1/1 12/12/1
f 2/6/7 6/10/7 12/12/7
f 5/1/3 2/6/3 12/12/3
f 6/10/6 2/6/6 13/13/6
f 1/8/8 6/10/8 13/13/8
f 2/6/5 1/8/5 13/13/5
f 6/10/7 1/8/7 14/14/7
f 6/10/1 14/14/1 4/2/1
f 4/2/2 14/14/2 1/8/2
